<svg width="20" height="20" viewBox="0 0 20 20" fill="none" xmlns="http://www.w3.org/2000/svg">
	<circle cx="10" cy="10" r="10" fill="current" />
	<rect x="9.71582" y="13.6868" width="4.85672" height="1.68433" transform="rotate(-135.858 9.71582 13.6868)"
		fill="white" />
	<rect x="9.71582" y="13.6868" width="4.85672" height="1.68433" transform="rotate(-135.858 9.71582 13.6868)"
		fill="white" />
	<rect x="9.71582" y="13.6868" width="4.85672" height="1.68433" transform="rotate(-135.858 9.71582 13.6868)"
		fill="white" />
	<rect x="9.71582" y="13.6868" width="4.85672" height="1.68433" transform="rotate(-135.858 9.71582 13.6868)"
		fill="white" />
	<rect x="8.66016" y="12.7004" width="7.62303" height="1.68433" transform="rotate(-45.8581 8.66016 12.7004)"
		fill="white" />
	<rect x="8.66016" y="12.7004" width="7.62303" height="1.68433" transform="rotate(-45.8581 8.66016 12.7004)"
		fill="white" />
	<rect x="8.66016" y="12.7004" width="7.62303" height="1.68433" transform="rotate(-45.8581 8.66016 12.7004)"
		fill="white" />
	<rect x="8.66016" y="12.7004" width="7.62303" height="1.68433" transform="rotate(-45.8581 8.66016 12.7004)"
		fill="white" />
</svg>