<svg width="12" height="12" viewBox="0 0 12 12" fill="none" xmlns="http://www.w3.org/2000/svg">
	<path d="M7.45727 6.17473C7.43578 6.15329 7.41873 6.12783 7.4071 6.09979C7.39546 6.07175 7.38948 6.0417 7.38948 6.01134C7.38948 5.98099 7.39546 5.95093 7.4071 5.9229C7.41873 5.89486 7.43578 5.86939 7.45727 5.84796L11.7182 1.58704C11.8064 1.50188 11.8767 1.40003 11.9251 1.28741C11.9734 1.17479 11.9989 1.05366 12 0.931098C12.001 0.808532 11.9777 0.686982 11.9313 0.573539C11.8848 0.460096 11.8163 0.357033 11.7296 0.270363C11.643 0.183693 11.5399 0.115151 11.4265 0.0687383C11.313 0.0223252 11.1915 -0.00103021 11.0689 3.48524e-05C10.9463 0.00109991 10.8252 0.0265642 10.7126 0.0749417C10.6 0.123319 10.4981 0.193641 10.413 0.281805L6.15204 4.54273C6.1306 4.56422 6.10514 4.58127 6.0771 4.5929C6.04907 4.60454 6.01901 4.61052 5.98866 4.61052C5.9583 4.61052 5.92825 4.60454 5.90021 4.5929C5.87217 4.58127 5.84671 4.56422 5.82527 4.54273L1.56435 0.281805C1.39026 0.113659 1.15708 0.0206176 0.915056 0.0227208C0.673028 0.0248239 0.441509 0.121903 0.270363 0.293049C0.0992171 0.464195 0.00213805 0.695714 3.48947e-05 0.937742C-0.00206826 1.17977 0.0909727 1.41294 0.259119 1.58704L4.52004 5.84796C4.54153 5.86939 4.55858 5.89486 4.57022 5.9229C4.58185 5.95093 4.58784 5.98099 4.58784 6.01134C4.58784 6.0417 4.58185 6.07175 4.57022 6.09979C4.55858 6.12783 4.54153 6.15329 4.52004 6.17473L0.259119 10.4357C0.0909727 10.6097 -0.00206826 10.8429 3.48947e-05 11.0849C0.00213805 11.327 0.0992171 11.5585 0.270363 11.7296C0.441509 11.9008 0.673028 11.9979 0.915056 12C1.15708 12.0021 1.39026 11.909 1.56435 11.7409L5.82527 7.47996C5.84671 7.45847 5.87217 7.44142 5.90021 7.42978C5.92825 7.41815 5.9583 7.41216 5.98866 7.41216C6.01901 7.41216 6.04907 7.41815 6.0771 7.42978C6.10514 7.44142 6.1306 7.45847 6.15204 7.47996L10.413 11.7409C10.5871 11.909 10.8202 12.0021 11.0623 12C11.3043 11.9979 11.5358 11.9008 11.707 11.7296C11.8781 11.5585 11.9752 11.327 11.9773 11.0849C11.9794 10.8429 11.8863 10.6097 11.7182 10.4357L7.45727 6.17473Z" fill="current" />
</svg>
