<svg width="69" height="111" viewBox="0 0 69 111" fill="none" xmlns="http://www.w3.org/2000/svg">
<path d="M0.0309617 55.81C0.0364853 56.0332 0.0839897 56.2453 0.173471 56.4497C0.202194 56.5182 0.224287 56.5844 0.264056 56.6474C0.402145 56.8783 0.577796 57.0893 0.825252 57.2395C0.828566 57.2417 0.835193 57.2418 0.838507 57.244C0.842926 57.2462 0.844032 57.2517 0.84845 57.2539L33.7203 76.5146C33.7457 76.53 33.7755 76.5223 33.8031 76.5378C34.0395 76.6593 34.3002 76.7499 34.5886 76.7499C34.8769 76.7499 35.1376 76.6593 35.3762 76.5333C35.406 76.5212 35.4403 76.5256 35.469 76.5101L67.7564 57.2462C68.0094 57.0959 68.1862 56.8805 68.3298 56.6452C68.3684 56.58 68.3927 56.5193 68.4204 56.4497C68.5109 56.2442 68.5584 56.0332 68.5662 55.81C68.5662 55.7625 68.5971 55.7239 68.5938 55.6786C68.5938 55.6576 68.5772 55.6432 68.5728 55.6222C68.5529 55.3693 68.49 55.1218 68.3519 54.8898L36.0634 0.837372C36.0512 0.815277 36.0302 0.80644 36.0158 0.78545C35.9772 0.723586 35.9297 0.674979 35.8822 0.619743C35.8225 0.550147 35.7618 0.488283 35.6922 0.426419C35.6391 0.383335 35.5916 0.335832 35.5353 0.300482C35.5132 0.285016 35.5022 0.262921 35.4801 0.249665C35.4425 0.226466 35.4016 0.226466 35.3641 0.207686C35.2889 0.167916 35.2138 0.139194 35.131 0.110471C35.0625 0.0861675 34.994 0.0618639 34.92 0.0475026C34.8471 0.0309319 34.7764 0.0276178 34.7034 0.0243037C34.6637 0.0198848 34.6283 0 34.5886 0C34.5488 0 34.5179 0.0198848 34.4781 0.0220942C34.4074 0.0287225 34.3411 0.0298272 34.2726 0.0441885C34.1942 0.0585497 34.1224 0.0839581 34.045 0.109366C33.9644 0.136984 33.8893 0.166812 33.8142 0.206581C33.7799 0.225361 33.7412 0.225361 33.707 0.244141C33.6871 0.256293 33.675 0.277283 33.6562 0.289435C33.5954 0.329204 33.5435 0.377811 33.4861 0.427523C33.4176 0.487178 33.3557 0.545728 33.296 0.615324C33.253 0.668351 33.2055 0.715853 33.1701 0.772194C33.1535 0.794288 33.1325 0.805335 33.1182 0.827429L0.247486 54.881C0.104979 55.113 0.0420107 55.366 0.0199165 55.6234C0.017707 55.6454 0.00223936 55.6598 2.99328e-05 55.683C-0.00107478 55.725 0.0287523 55.7648 0.0309617 55.81ZM36.3075 7.94398L62.5632 51.9016L36.3075 39.858V7.94398ZM32.8707 39.8481L6.06932 51.9237L32.8707 7.85119V39.8481ZM32.8707 43.6195V72.0305L5.45731 55.9702L32.8707 43.6195ZM36.3075 72.0029V43.6372L63.1873 55.9702L36.3075 72.0029Z" fill="white"/>
<path d="M68.4469 61.6827C67.9023 61.0861 67.0052 60.9679 66.3092 61.3667L34.5886 80.0949L2.88001 61.3667C2.18736 60.9635 1.29033 61.0861 0.739079 61.6827C0.190037 62.2837 0.132591 63.1785 0.602094 63.8424L33.1856 109.749C33.211 109.784 33.253 109.795 33.2784 109.827C33.3458 109.909 33.4131 109.981 33.4916 110.048C33.5291 110.079 33.5512 110.127 33.5921 110.154C33.6241 110.177 33.665 110.167 33.6993 110.189C33.7545 110.222 33.802 110.268 33.8628 110.298C34.0815 110.404 34.3234 110.471 34.5819 110.471C34.583 110.471 34.583 110.471 34.5852 110.471C34.5852 110.471 34.5852 110.471 34.5875 110.471C34.5897 110.471 34.5897 110.471 34.5897 110.471C34.5908 110.471 34.5908 110.471 34.593 110.471C34.8515 110.471 35.0923 110.403 35.3121 110.298C35.3729 110.269 35.4204 110.223 35.4756 110.189C35.5088 110.166 35.5497 110.177 35.5828 110.154C35.6237 110.128 35.6458 110.08 35.6833 110.048C35.7618 109.98 35.8303 109.909 35.8954 109.827C35.9208 109.795 35.9639 109.784 35.9882 109.749L68.5839 63.8424C69.0556 63.1785 68.997 62.2837 68.4469 61.6827ZM32.8707 83.0765V103.361L8.07436 68.4281L32.8707 83.0765ZM36.3075 103.361V83.0765L61.1138 68.4281L36.3075 103.361Z" fill="white"/>
</svg>
