<svg width="20" height="20" viewBox="0 0 20 20" fill="none" xmlns="http://www.w3.org/2000/svg">
<circle cx="10" cy="10" r="10" fill="#FF8080"/>
<rect x="7" y="12.4705" width="7.62303" height="1.68433" transform="rotate(-45.8581 7 12.4705)" fill="white"/>
<rect x="7" y="12.4705" width="7.62303" height="1.68433" transform="rotate(-45.8581 7 12.4705)" fill="white"/>
<rect x="7" y="12.4705" width="7.62303" height="1.68433" transform="rotate(-45.8581 7 12.4705)" fill="white"/>
<rect x="7" y="12.4705" width="7.62303" height="1.68433" transform="rotate(-45.8581 7 12.4705)" fill="white"/>
<rect x="12.3906" y="13.5813" width="7.62303" height="1.68433" transform="rotate(-135 12.3906 13.5813)" fill="white"/>
<rect x="12.3906" y="13.5813" width="7.62303" height="1.68433" transform="rotate(-135 12.3906 13.5813)" fill="white"/>
<rect x="12.3906" y="13.5813" width="7.62303" height="1.68433" transform="rotate(-135 12.3906 13.5813)" fill="white"/>
<rect x="12.3906" y="13.5813" width="7.62303" height="1.68433" transform="rotate(-135 12.3906 13.5813)" fill="white"/>
</svg>
