<svg width="19" height="19" viewBox="0 0 19 19" fill="none" xmlns="http://www.w3.org/2000/svg">
<path d="M9.44224 4.16989e-07C7.19503 -0.000667222 5.0213 0.8004 3.31192 2.25916C1.60254 3.71792 0.469661 5.73866 0.116989 7.95802C-0.235682 10.1774 0.214994 12.4498 1.38798 14.3666C2.56096 16.2833 4.3793 17.7188 6.51602 18.4147H6.74414C6.85544 18.4216 6.96693 18.4048 7.07122 18.3653C7.17551 18.3259 7.27023 18.2647 7.34907 18.1858C7.42792 18.107 7.48911 18.0123 7.52857 17.908C7.56803 17.8037 7.58486 17.6922 7.57796 17.5809V17.4157C7.57796 17.282 7.57796 17.1011 7.57796 16.5583C7.57024 16.5068 7.55236 16.4573 7.52535 16.4127C7.49834 16.3682 7.46275 16.3294 7.42064 16.2987C7.37494 16.2618 7.32155 16.2355 7.26437 16.2219C7.2072 16.2083 7.1477 16.2077 7.09026 16.2201C4.98212 16.6763 4.53375 15.3548 4.50228 15.2683C4.2383 14.5691 3.76603 13.9677 3.1493 13.5456C3.11235 13.5136 3.07289 13.4847 3.03131 13.459C3.12272 13.4098 3.22727 13.3906 3.33022 13.404C3.52793 13.4315 3.71515 13.5097 3.87367 13.631C4.0322 13.7523 4.15662 13.9126 4.23483 14.0962C4.53914 14.6261 5.03709 15.0172 5.62393 15.1874C6.21077 15.3576 6.84074 15.2935 7.38131 15.0087C7.43931 14.9833 7.49034 14.9443 7.53006 14.895C7.56977 14.8457 7.597 14.7876 7.60942 14.7255C7.63954 14.3616 7.79527 14.0196 8.04993 13.758C8.10646 13.7077 8.14733 13.6423 8.16763 13.5695C8.18793 13.4966 8.18681 13.4195 8.1644 13.3473C8.14199 13.2751 8.09924 13.2109 8.04127 13.1623C7.9833 13.1138 7.91257 13.083 7.83754 13.0736C5.97326 12.8612 4.06964 12.2083 4.06964 8.99105C4.05393 8.1831 4.34967 7.40007 4.89559 6.80425C4.94587 6.74871 4.97924 6.67998 4.99179 6.60612C5.00433 6.53226 4.99552 6.45636 4.96639 6.38734C4.74777 5.77656 4.75055 5.1084 4.97425 4.49946C5.70095 4.62827 6.38303 4.93954 6.95653 5.40407C7.00391 5.43751 7.05822 5.45983 7.11543 5.46936C7.17263 5.4789 7.23125 5.4754 7.28691 5.45913C7.98959 5.26852 8.71418 5.17067 9.44224 5.16808C10.173 5.1687 10.9005 5.26657 11.6054 5.45913C11.66 5.47417 11.7171 5.47703 11.7728 5.46752C11.8286 5.458 11.8815 5.43634 11.928 5.40407C12.5024 4.941 13.184 4.62991 13.9102 4.49946C14.1244 5.10514 14.1244 5.76593 13.9102 6.37161C13.8811 6.44063 13.8723 6.51653 13.8848 6.59039C13.8974 6.66424 13.9308 6.73298 13.981 6.78852C14.5213 7.37838 14.8166 8.15188 14.807 8.95172C14.807 12.169 12.8955 12.814 11.0233 13.0264C10.9466 13.0344 10.8738 13.0648 10.8142 13.1139C10.7546 13.1629 10.7107 13.2284 10.6881 13.3022C10.6654 13.376 10.665 13.4549 10.6869 13.5289C10.7087 13.603 10.7519 13.6689 10.811 13.7186C10.9852 13.8985 11.1183 14.114 11.2012 14.3503C11.284 14.5866 11.3146 14.8381 11.2908 15.0873V17.5888C11.2869 17.7118 11.3103 17.8341 11.3592 17.947C11.4082 18.0598 11.4815 18.1605 11.574 18.2417C11.6917 18.3298 11.8284 18.3892 11.9732 18.4152C12.1179 18.4411 12.2668 18.4329 12.4078 18.3911C14.5302 17.6811 16.3312 16.2401 17.4896 14.3252C18.648 12.4103 19.0883 10.1461 18.7321 7.93669C18.3758 5.72723 17.2461 3.71623 15.5445 2.26251C13.843 0.808788 11.6802 0.00692646 9.44224 4.16989e-07Z" fill="#509DAC"/>
</svg>
