<svg width="21" height="16" viewBox="0 0 21 16" fill="none" xmlns="http://www.w3.org/2000/svg">
<path d="M8.08253 13.3346L7.31623 14.1009C6.62235 14.7947 5.68125 15.1845 4.69996 15.1845C3.71867 15.1845 2.77757 14.7947 2.08369 14.1009C1.38982 13.407 1 12.4659 1 11.4846C1 10.5033 1.38982 9.5622 2.08369 8.86832L6.00809 4.94309C6.66604 4.28366 7.54852 3.89667 8.47931 3.85941C9.4101 3.82215 10.3207 4.13736 11.0292 4.7421C11.7378 5.34683 12.1922 6.19659 12.3016 7.12167C12.4111 8.04675 12.1675 8.97907 11.6197 9.73246" stroke="#509DAC" stroke-width="1.6" stroke-linecap="round" stroke-linejoin="round"/>
<path d="M12.5674 2.70035L13.184 2.08369C13.8779 1.38982 14.819 1 15.8003 1C16.7816 1 17.7227 1.38982 18.4166 2.08369C19.1104 2.77757 19.5003 3.71867 19.5003 4.69996C19.5003 5.68125 19.1104 6.62235 18.4166 7.31623L14.4922 11.2406C13.8341 11.8998 12.9516 12.2865 12.0209 12.3235C11.0902 12.3606 10.1798 12.0452 9.47139 11.4404C8.76301 10.8356 8.3088 9.98593 8.19943 9.06094C8.09007 8.13596 8.3336 7.20375 8.88141 6.45044" stroke="#509DAC" stroke-width="1.6" stroke-linecap="round" stroke-linejoin="round"/>
</svg>
