<svg width="28" height="31" viewBox="0 0 28 31" fill="none" xmlns="http://www.w3.org/2000/svg">
	<path d="M7.96777 4.25744C9.05153 5.32059 10.3509 6.16617 11.7883 6.74362C13.2256 7.32108 14.7714 7.61854 16.3331 7.61822C17.9149 7.61864 19.4801 7.3141 20.9331 6.72319" stroke="current" stroke-width="2" stroke-linecap="round" stroke-linejoin="round" />
	<path d="M7 7.6182C7 9.37345 7.7375 11.0568 9.05025 12.298C10.363 13.5391 12.1435 14.2364 14 14.2364C15.8565 14.2364 17.637 13.5391 18.9497 12.298C20.2625 11.0568 21 9.37345 21 7.6182C21 5.86295 20.2625 4.17959 18.9497 2.93844C17.637 1.69729 15.8565 1.00002 14 1.00002C12.1435 1.00002 10.363 1.69729 9.05025 2.93844C7.7375 4.17959 7 5.86295 7 7.6182V7.6182Z" stroke="current" stroke-width="2" stroke-linecap="round" stroke-linejoin="round" />
	<path d="M1 29.3636C1 26.1039 2.36964 22.9776 4.80761 20.6726C7.24559 18.3677 10.5522 17.0727 14 17.0727C17.4478 17.0727 20.7544 18.3677 23.1924 20.6726C25.6304 22.9776 27 26.1039 27 29.3636" stroke="current" stroke-width="2" stroke-linecap="round" stroke-linejoin="round" />
</svg>
